<svg width="100" height="100" viewBox="0 0 100 100" fill="none" xmlns="http://www.w3.org/2000/svg">
    <path fill-rule="evenodd" clip-rule="evenodd"
        d="M10 57V10H30V57H10ZM5 5V10V95H10V62H30V90.9546L29.5613 91.3702L30 91.8333V95H33H35V93.1053L68 61.8421V95H73V25H87V95H92V25H99V20H92V5H87H73H68V20H59.6612C57.2783 18.1211 54.2701 17 51 17C43.268 17 37 23.268 37 31C37 36.8811 40.6264 41.9153 45.765 43.9884L47.6945 45.0689L35 54.3457V10V5H30H10H5ZM52.4923 47.7557L35 60.5385V62V86.2178L67.0146 55.8882L52.4923 47.7557ZM68 50.7094V25H63.6527C64.5166 26.8185 65 28.8528 65 31C65 35.8653 62.5182 40.1509 58.7515 42.66L59 43L56.9319 44.5113L68 50.7094ZM47.8921 39.449C48.8608 39.8054 49.9077 40 51 40C55.9706 40 60 35.9706 60 31C60 26.0294 55.9706 22 51 22C46.0294 22 42 26.0294 42 31C42 34.2858 43.7608 37.1604 46.3904 38.7315L46.443 38.6375L47.8921 39.449ZM73 20V10H87V20H73Z"
        fill="#f08138" />
</svg>